<svg width="9" height="26" viewBox="0 0 9 26" fill="none" xmlns="http://www.w3.org/2000/svg">
<path d="M5 1C5 0.723858 4.77614 0.5 4.5 0.5C4.22386 0.5 4 0.723858 4 1H5ZM4.14645 25.3536C4.34171 25.5488 4.65829 25.5488 4.85355 25.3536L8.03553 22.1716C8.2308 21.9763 8.2308 21.6597 8.03553 21.4645C7.84027 21.2692 7.52369 21.2692 7.32843 21.4645L4.5 24.2929L1.67157 21.4645C1.47631 21.2692 1.15973 21.2692 0.964466 21.4645C0.769204 21.6597 0.769204 21.9763 0.964466 22.1716L4.14645 25.3536ZM4 1L4 25H5L5 1H4Z" fill="#270D06" fill-opacity="0.4"/>
</svg>
