<svg width="48" height="38" viewBox="0 0 48 38" fill="none" xmlns="http://www.w3.org/2000/svg">
<path d="M16.0594 25.3008C13.7001 25.3008 11.7561 23.0998 11.7561 20.3964C11.7561 17.6932 13.6624 15.4921 16.0594 15.4921C18.4752 15.4921 20.4004 17.7125 20.3627 20.3964C20.3627 23.0998 18.4563 25.3008 16.0594 25.3008Z" fill="#071619"/>
<path d="M31.97 25.3008C29.6109 25.3008 27.6669 23.0998 27.6669 20.3964C27.6669 17.6932 29.573 15.4921 31.97 15.4921C34.3859 15.4921 36.311 17.7125 36.2733 20.3964C36.2733 23.0998 34.3859 25.3008 31.97 25.3008Z" fill="#071619"/>
<path d="M18.53 2.61318C19.92 4.44211 22.9601 9.39998 24.0001 14.6C24.6179 11.8088 26.5782 5.50374 29.4769 2.61318C27.9415 2.37959 26.4095 2.24345 24.8834 2.20475C22.5987 2.24027 20.0793 2.44487 18.53 2.61318Z" fill="url(#paint0_linear_224_327)"/>
<path d="M7.39433 3.07661C7.3679 3.08818 7.34525 3.10751 7.33021 3.13259C1.12254 12.5571 -0.578 21.7501 0.256227 30.829C0.260002 30.8734 0.284538 30.9159 0.318511 30.9429C4.41415 33.9994 8.38149 35.8549 12.2751 37.0849C12.3374 37.1043 12.4035 37.0811 12.4431 37.0288C13.3642 35.7508 14.1852 34.403 14.8892 32.9857C14.9307 32.9027 14.891 32.8041 14.8061 32.7714C13.5038 32.2694 12.2638 31.6573 11.071 30.9622C10.9766 30.9062 10.9691 30.7691 11.0559 30.7035C11.3069 30.5123 11.558 30.3134 11.7977 30.1125C10.428 28.0927 7.6297 19.8579 7.39433 3.07661Z" fill="#071619"/>
<path fill-rule="evenodd" clip-rule="evenodd" d="M30.8471 0.00459472C34.269 0.605091 37.5416 1.65354 40.5936 3.07661C40.5438 21.4179 37.5216 28.7286 36.0167 30.0914C28.2726 33.7271 19.7888 33.7271 11.9524 30.0914C11.9014 30.0682 11.841 30.076 11.7977 30.1125C10.428 28.0927 7.6297 19.8579 7.39433 3.07661C10.4481 1.65162 13.7209 0.603176 17.1408 0.00459472C17.2031 -0.00506175 17.2654 0.0239076 17.2975 0.0798912C17.7203 0.840637 18.2034 1.81576 18.53 2.61318C19.92 4.44211 22.9601 9.39998 24.0001 14.6C24.6179 11.8088 26.5782 5.50374 29.4769 2.61318C29.8033 1.8331 30.2695 0.840637 30.6905 0.0798912C30.7226 0.0219723 30.7849 -0.00699703 30.8471 0.00459472ZM18.53 2.61318C20.6311 2.28683 22.7514 2.15069 24.8834 2.20475C22.5987 2.24027 20.0793 2.44487 18.53 2.61318ZM11.7561 20.3964C11.7561 23.0998 13.7001 25.3008 16.0594 25.3008C18.4563 25.3008 20.3627 23.0998 20.3627 20.3964C20.4004 17.7125 18.4752 15.4921 16.0594 15.4921C13.6624 15.4921 11.7561 17.6932 11.7561 20.3964ZM27.6669 20.3964C27.6669 23.0998 29.6109 25.3008 31.97 25.3008C34.3859 25.3008 36.2733 23.0998 36.2733 20.3964C36.311 17.7125 34.3859 15.4921 31.97 15.4921C29.573 15.4921 27.6669 17.6932 27.6669 20.3964Z" fill="#F3F0EC"/>
<path d="M36.0167 30.0914C36.0676 30.0662 36.128 30.074 36.1733 30.1107C36.413 30.3114 36.6641 30.5123 36.9169 30.7035C37.0037 30.7691 36.9981 30.9062 36.9038 30.9622C35.7109 31.6707 34.4709 32.2694 33.1667 32.7694C33.0819 32.8023 33.044 32.9027 33.0855 32.9857C33.8047 34.401 34.6257 35.7488 35.5297 37.027C35.5674 37.0811 35.6354 37.1043 35.6977 37.0849C39.6102 35.8549 43.5775 33.9994 47.6731 30.9429C47.709 30.9159 47.7318 30.8752 47.7356 30.8309C48.7339 20.3347 46.0632 11.2171 40.6558 3.13453C40.6426 3.10751 40.6201 3.08818 40.5936 3.07661C40.5438 21.4179 37.5216 28.7286 36.0167 30.0914Z" fill="#071619"/>
<path d="M24.8822 2.4548C26.2383 2.48938 27.5994 2.60147 28.9636 2.79109C27.6279 4.27546 26.5131 6.43072 25.6516 8.54968C24.9212 10.3462 24.3657 12.1348 24.0089 13.5028C22.8693 8.9511 20.3768 4.74417 18.9906 2.81629C20.5443 2.6592 22.8109 2.48723 24.8822 2.4548ZM29.6884 2.75529L29.9214 2.52289L29.8065 2.47654C30.1118 1.7676 30.5093 0.931081 30.8749 0.263357C34.1949 0.852389 37.373 1.8659 40.3431 3.236C40.3097 12.3086 39.5462 18.6533 38.6067 22.8969C38.1342 25.0313 37.6179 26.6307 37.1297 27.7767C36.6511 28.9 36.2082 29.5667 35.8755 29.8815C28.2085 33.469 19.8159 33.4641 12.0576 29.8646L12.0558 29.8637C12.0098 29.8428 11.9608 29.8312 11.9117 29.8288C11.2536 28.7686 10.2729 26.2788 9.41556 22.0801C8.52479 17.7174 7.77159 11.5314 7.64666 3.23511C10.618 1.86357 13.7957 0.850351 17.1133 0.263288C17.4705 0.910868 17.866 1.70247 18.169 2.40092L18.0634 2.4124L18.3111 2.73831L18.3734 2.8905L18.4202 2.88322C19.8339 4.78349 22.7467 9.60754 23.755 14.649L24.2442 14.654C24.5504 13.2708 25.1909 11.0103 26.1148 8.738C27.0218 6.5072 28.1907 4.29341 29.5652 2.8795L29.6322 2.88968L29.6884 2.75529ZM0.501657 30.7676C-0.30223 21.9424 1.3037 13.0129 7.15721 3.85834C7.30963 11.872 8.04996 17.8912 8.92567 22.1801C9.77686 26.349 10.7599 28.9028 11.4676 30.0611C11.2836 30.2113 11.0944 30.3599 10.9047 30.5043C10.6759 30.6777 10.6972 31.0309 10.9433 31.1772L10.9451 31.1782C12.1183 31.8619 13.3383 32.4668 14.6191 32.967C13.9425 34.3164 13.1585 35.6023 12.2819 36.8248C8.44493 35.6057 4.53677 33.773 0.501657 30.7676ZM20.1127 20.3929L20.1127 20.3929V20.3964C20.1127 22.9944 18.2877 25.0508 16.0594 25.0508C13.8674 25.0508 12.0061 22.9929 12.0061 20.3964C12.0061 17.7985 13.831 15.7421 16.0594 15.7421C18.3081 15.7421 20.1489 17.8191 20.1127 20.3929ZM36.0233 20.3929V20.3964C36.0233 22.9952 34.2166 25.0508 31.97 25.0508C29.7783 25.0508 27.9169 22.9929 27.9169 20.3964C27.9169 17.7985 29.7417 15.7421 31.97 15.7421C34.2188 15.7421 36.0595 17.8191 36.0233 20.3929ZM11.5061 20.3964C11.5061 23.2067 13.5328 25.5508 16.0594 25.5508C18.6245 25.5508 20.6118 23.2061 20.6127 20.3981C20.6511 17.6049 18.6417 15.2421 16.0594 15.2421C13.4937 15.2421 11.5061 17.5878 11.5061 20.3964ZM27.4169 20.3964C27.4169 23.2066 29.4436 25.5508 31.97 25.5508C34.5546 25.5508 36.5224 23.2054 36.5233 20.3983C36.5617 17.605 34.5525 15.2421 31.97 15.2421C29.4044 15.2421 27.4169 17.5878 27.4169 20.3964Z" stroke="url(#paint1_linear_224_327)" stroke-width="0.5"/>
<defs>
<linearGradient id="paint0_linear_224_327" x1="24.0001" y1="2.24998" x2="24.0001" y2="14.6" gradientUnits="userSpaceOnUse">
<stop stop-color="#F85F00"/>
<stop offset="1" stop-color="#FB7E02"/>
</linearGradient>
<linearGradient id="paint1_linear_224_327" x1="24.564" y1="-5.08057" x2="23.552" y2="37.0809" gradientUnits="userSpaceOnUse">
<stop stop-color="#F85400"/>
<stop offset="1" stop-color="#FC9104"/>
</linearGradient>
</defs>
</svg>
