<svg width="19" height="26" viewBox="0 0 19 26" fill="none" xmlns="http://www.w3.org/2000/svg">
<path d="M2.22141 6.62303C2.12998 6.9341 1.80445 7.11144 1.49337 7.02018C1.18301 6.92875 1.00495 6.60321 1.09622 6.29213C1.63926 4.4573 2.77051 2.86836 4.26802 1.74712C5.73266 0.650347 7.54518 -3.05176e-05 9.49956 -3.05176e-05C11.9096 -3.05176e-05 14.1007 0.985341 15.6884 2.57282C17.2759 4.16034 18.2619 6.35138 18.2619 8.76162V16.3164C18.2619 18.7264 17.2766 20.9175 15.6884 22.5052C14.1008 24.0934 11.9098 25.0787 9.49956 25.0787C7.08932 25.0787 4.89842 24.0934 3.31076 22.5052C1.72324 20.9176 0.737183 18.7266 0.737183 16.3164V12.4103C0.737183 12.0862 1.00057 11.8228 1.3247 11.8228C1.64953 11.8228 1.91222 12.0862 1.91222 12.4103V16.3164C1.91222 18.4023 2.76543 20.2985 4.14098 21.6741C5.51652 23.0496 7.41275 23.9028 9.49869 23.9028C11.5846 23.9028 13.4808 23.0496 14.8564 21.6741C16.232 20.2985 17.0852 18.4023 17.0852 16.3164V8.76162C17.0852 6.67572 16.2319 4.77949 14.8564 3.4039C13.6114 2.15892 11.9394 1.34178 10.087 1.19819V4.66891C10.5509 4.77944 10.9663 5.01837 11.2927 5.34552C11.7527 5.8055 12.0384 6.4407 12.0384 7.13963V9.18946C12.0384 9.88838 11.7527 10.5236 11.2927 10.9836C10.8328 11.4435 10.1976 11.7293 9.49865 11.7293C8.79972 11.7293 8.16452 11.4435 7.70454 10.9836C7.24457 10.5236 6.95885 9.88838 6.95885 9.18946V7.13963C6.95885 6.4407 7.24457 5.8055 7.70454 5.34552C8.03168 5.01838 8.44722 4.77944 8.91026 4.66891V1.19819C7.44027 1.31194 6.08543 1.84802 4.96882 2.68354C3.67007 3.65588 2.69005 5.03284 2.21933 6.62264L2.22141 6.62303ZM10.4628 6.17607C10.2155 5.92875 9.87458 5.77518 9.49977 5.77518C9.12494 5.77518 8.78475 5.92875 8.53675 6.17607C8.28943 6.42339 8.13586 6.76428 8.13586 7.13909V9.18892C8.13586 9.56374 8.28943 9.90393 8.53675 10.1519C8.78407 10.3993 9.12495 10.5528 9.49977 10.5528C9.87387 10.5528 10.2148 10.3993 10.4628 10.1519C10.7101 9.90461 10.8637 9.56373 10.8637 9.18892V7.13909C10.8637 6.76427 10.7101 6.42407 10.4628 6.17607Z" fill="#270D06" fill-opacity="0.4"/>
</svg>
