<svg width="29" height="28" viewBox="0 0 29 28" fill="none" xmlns="http://www.w3.org/2000/svg">
<path fill-rule="evenodd" clip-rule="evenodd" d="M8.66671 4.66671C6.73371 4.66671 5.16671 6.23371 5.16671 8.16671V19.8334C5.16671 21.7664 6.73371 23.3334 8.66671 23.3334H20.3334C22.2664 23.3334 23.8334 21.7664 23.8334 19.8334V15.1667C23.8334 14.5224 24.3557 14 25 14C25.6444 14 26.1667 14.5224 26.1667 15.1667V19.8334C26.1667 23.055 23.555 25.6667 20.3334 25.6667H8.66671C5.44505 25.6667 2.83337 23.055 2.83337 19.8334V8.16671C2.83337 4.94505 5.44505 2.33337 8.66671 2.33337H13.3334C13.9777 2.33337 14.5 2.85571 14.5 3.50004C14.5 4.14437 13.9777 4.66671 13.3334 4.66671H8.66671Z" fill="#270D06" fill-opacity="0.65"/>
<path fill-rule="evenodd" clip-rule="evenodd" d="M25.825 2.67508C26.2806 3.13069 26.2806 3.86939 25.825 4.325L15.325 14.825C14.8694 15.2806 14.1307 15.2806 13.6751 14.825C13.2195 14.3694 13.2195 13.6307 13.6751 13.1751L24.1751 2.67508C24.6307 2.21947 25.3694 2.21947 25.825 2.67508Z" fill="#270D06" fill-opacity="0.65"/>
<path fill-rule="evenodd" clip-rule="evenodd" d="M16.8334 3.50004C16.8334 2.85571 17.3557 2.33337 18 2.33337H25C25.6444 2.33337 26.1667 2.85571 26.1667 3.50004V10.5C26.1667 11.1444 25.6444 11.6667 25 11.6667C24.3557 11.6667 23.8334 11.1444 23.8334 10.5V4.66671H18C17.3557 4.66671 16.8334 4.14437 16.8334 3.50004Z" fill="#270D06" fill-opacity="0.65"/>
</svg>
