<svg width="47" height="41" viewBox="0 0 47 41" fill="none" xmlns="http://www.w3.org/2000/svg">
<path d="M4.42784 8.70253C4.42784 7.08871 4.80088 5.56648 5.45296 4.23467C9.98492 10.0502 16.6686 13.8645 24.1858 14.2717L24.5112 14.2893L24.4439 13.9705C24.2958 13.2681 24.2142 12.5382 24.2142 11.7856C24.2142 6.48714 28.2004 2.22211 33.0827 2.22211C35.6223 2.22211 37.9277 3.3775 39.5434 5.23736L39.6399 5.34846L39.7838 5.31799C41.6603 4.92096 43.4392 4.21861 45.0698 3.2621C44.3413 5.21532 43.0325 6.84322 41.381 7.90985L41.5489 8.36776C43.1277 8.16174 44.6443 7.74939 46.0777 7.14832C44.9528 8.79899 43.5891 10.2567 42.0479 11.4521L41.945 11.532L41.9514 11.6621C41.9721 12.0785 41.9825 12.5029 41.9825 12.9247C41.9825 25.8001 32.8871 40.5867 16.2984 40.5867C11.5548 40.5867 7.12405 39.1897 3.30824 36.7735C3.71178 36.8008 4.11972 36.8148 4.52535 36.8148C8.85711 36.8148 12.8743 35.2214 16.0361 32.56L16.5438 32.1327L15.8804 32.1188C12.15 32.0406 9.01902 29.4737 7.78487 25.8686C8.26829 25.9418 8.798 25.9798 9.26225 25.9798C10.1138 25.9798 11.1881 25.855 11.9781 25.6278L11.9621 25.1432C8.11234 24.3057 5.5727 20.7585 5.35949 16.3698C5.60809 16.5228 5.93161 16.6483 6.28192 16.7501C7.0274 16.9667 7.95706 17.0931 8.72051 17.1198L9.54301 17.1486L8.87548 16.6672C6.47427 14.9355 4.42784 12.0039 4.42784 8.70253Z" fill="#F5F2EE" stroke="url(#paint0_linear_224_317)" stroke-width="0.5"/>
<path d="M6.14105 1.43171C11.2165 15.4598 23.9863 13.7942 26.238 14.7612C17.879 21.0119 11.7718 19.3463 7.33011 14.9046C2.88838 10.463 4.86728 4.34765 6.14105 1.43171Z" fill="url(#paint1_linear_224_317)" stroke="url(#paint2_linear_224_317)" stroke-width="0.8"/>
<path d="M32.8695 10.463C19.1004 22.4555 8.62545 18.7911 5.10913 15.4598C7.32918 27.1436 13.9925 25.4536 21.2102 23.788C28.4279 22.1223 31.389 14.3494 32.8695 10.463Z" fill="url(#paint3_linear_224_317)" stroke="url(#paint4_linear_224_317)"/>
<path d="M17.5343 31.488C12.4363 33.223 8.03027 27.6606 7.23575 24.9673C22.2199 28.2289 29.092 20.278 32.108 14.2856C27.1195 27.9788 19.1964 30.9223 17.5343 31.488Z" fill="url(#paint5_linear_224_317)" stroke="url(#paint6_linear_224_317)"/>
<path d="M2.33325 36.5577C13.4374 34.8921 30.3158 30.4505 33.4249 8.24213C34.5353 10.463 37.3114 53.214 2.33325 36.5577Z" fill="#071619" stroke="#071619"/>
<defs>
<linearGradient id="paint0_linear_224_317" x1="25.0647" y1="-3.35378" x2="23.867" y2="40.8184" gradientUnits="userSpaceOnUse">
<stop stop-color="#F85400"/>
<stop offset="1" stop-color="#FC9104"/>
</linearGradient>
<linearGradient id="paint1_linear_224_317" x1="25.6519" y1="15.4598" x2="-6.96675" y2="-2.01044" gradientUnits="userSpaceOnUse">
<stop stop-color="#F85400"/>
<stop offset="1" stop-color="#FD9C04"/>
</linearGradient>
<linearGradient id="paint2_linear_224_317" x1="25.6519" y1="15.4598" x2="-6.96675" y2="-2.01044" gradientUnits="userSpaceOnUse">
<stop stop-color="#F85400"/>
<stop offset="1" stop-color="#FD9C04"/>
</linearGradient>
<linearGradient id="paint3_linear_224_317" x1="19.3163" y1="8.47472" x2="19.0491" y2="24.9726" gradientUnits="userSpaceOnUse">
<stop stop-color="#F85400"/>
<stop offset="1" stop-color="#FC9104"/>
</linearGradient>
<linearGradient id="paint4_linear_224_317" x1="19.3163" y1="8.47472" x2="19.0491" y2="24.9726" gradientUnits="userSpaceOnUse">
<stop stop-color="#F85400"/>
<stop offset="1" stop-color="#FC9104"/>
</linearGradient>
<linearGradient id="paint5_linear_224_317" x1="30.2887" y1="18.1236" x2="9.77644" y2="29.5042" gradientUnits="userSpaceOnUse">
<stop stop-color="#270D06"/>
<stop offset="1" stop-color="#DE4B00"/>
</linearGradient>
<linearGradient id="paint6_linear_224_317" x1="30.2887" y1="18.1236" x2="9.77644" y2="29.5042" gradientUnits="userSpaceOnUse">
<stop stop-color="#270D06"/>
<stop offset="1" stop-color="#DE4B00"/>
</linearGradient>
</defs>
</svg>
