<svg width="165" height="45" viewBox="0 0 165 45" fill="none" xmlns="http://www.w3.org/2000/svg">
<g clip-path="url(#clip0_141_13333)">
<path d="M25.3588 35.1838H0.10498V43.5951H25.3588V35.1838Z" fill="url(#paint0_linear_141_13333)"/>
<path d="M0.10498 35.1839L22.2804 32.6045V24.1372L0.10498 26.7167V35.1839Z" fill="url(#paint1_linear_141_13333)"/>
<path d="M0.10498 26.7446L19.2837 21.5857V12.9502L0.10498 18.1091V26.7446Z" fill="url(#paint2_linear_141_13333)"/>
<path d="M0.10498 14.8007L12.8272 8.96887V0.0529785L0.10498 5.88477V14.8007Z" fill="url(#paint3_linear_141_13333)"/>
<path d="M38.0813 11.8286C39.6615 11.8286 40.6966 12.894 40.6966 14.5202C40.6966 16.1464 39.6341 17.2679 38.0813 17.2679C36.4468 17.2679 35.4116 16.1744 35.4116 14.5202C35.4116 12.866 36.4468 11.8286 38.0813 11.8286ZM35.793 43.6791V21.1371H40.3426V43.6791H35.793Z" fill="white"/>
<path d="M52.7924 25.567C49.85 25.567 47.6707 28.4268 47.6707 32.4081V43.6791H43.1482V21.1371H47.6977V24.8099C48.4878 22.5109 50.9125 20.8567 53.6095 20.8567C59.1668 20.8567 62.6539 25.3987 62.6539 32.352V43.6509H58.1043V32.352C58.1043 28.2305 56.0068 25.567 52.7924 25.567Z" fill="white"/>
<path d="M81.8599 40.0062C80.9611 42.3055 77.9644 43.9034 74.9404 43.9034C68.593 43.9034 64.4791 39.3333 64.4791 32.3801C64.4791 25.4829 68.593 20.8847 74.9404 20.8847C77.9371 20.8847 80.9338 22.5109 81.8599 24.838V12.0249H86.4095V43.6791H81.8599V40.0062ZM75.4581 39.1931C79.2446 39.1931 81.8872 36.4455 81.8329 32.4081C81.8329 28.3988 79.1629 25.567 75.4581 25.567C71.6167 25.567 69.0017 28.2586 69.0017 32.352C69.0017 36.5014 71.644 39.1931 75.4581 39.1931Z" fill="white"/>
<path d="M108.776 36.7539C107.277 40.9593 103.409 43.8475 99.0231 43.8475C92.7026 43.8475 88.2621 39.0809 88.2621 32.324C88.2621 25.7913 92.8663 20.8286 98.914 20.8286C104.935 20.8286 109.566 25.7352 109.566 32.2118C109.566 32.8006 109.539 33.4456 109.43 34.0064H92.9753C93.5474 37.2865 95.89 39.4174 98.9957 39.4174C101.257 39.4174 103.082 38.324 103.927 36.7539H108.776ZM104.853 30.6137C104.281 27.4455 101.938 25.2866 98.914 25.2866C95.89 25.2866 93.5744 27.4174 92.9753 30.6137H104.853Z" fill="white"/>
<path d="M116.24 32.4083L108.694 21.1372H114.17L119.018 28.3148L123.84 21.1372H129.316L121.77 32.4083L129.316 43.6792H123.84L118.991 36.5015L114.142 43.6792H108.667L116.24 32.4083Z" fill="white"/>
<path d="M148.822 36.7539C147.324 40.9593 143.456 43.8475 139.07 43.8475C132.749 43.8475 128.309 39.0809 128.309 32.324C128.309 25.7913 132.913 20.8286 138.961 20.8286C144.981 20.8286 149.613 25.7352 149.613 32.2118C149.613 32.8006 149.585 33.4456 149.476 34.0064H133.022C133.594 37.2865 135.937 39.4174 139.042 39.4174C141.304 39.4174 143.129 38.324 143.973 36.7539H148.822ZM144.927 30.6137C144.355 27.4455 142.012 25.2866 138.988 25.2866C135.964 25.2866 133.648 27.4174 133.049 30.6137H144.927Z" fill="white"/>
<path d="M164.105 25.567C158.929 25.539 156.014 28.1465 156.014 32.8848V43.651H151.465V21.1371H156.014V25.3147C157.703 22.0343 161.082 20.8848 164.105 20.8848V25.567Z" fill="white"/>
</g>
<defs>
<linearGradient id="paint0_linear_141_13333" x1="-2.22665" y1="39.4082" x2="22.272" y2="39.4082" gradientUnits="userSpaceOnUse">
<stop offset="0.2222" stop-color="#F67408"/>
<stop offset="1" stop-color="#FFB13B"/>
</linearGradient>
<linearGradient id="paint1_linear_141_13333" x1="-2.22665" y1="29.6607" x2="22.272" y2="29.6607" gradientUnits="userSpaceOnUse">
<stop offset="0.2222" stop-color="#F67408"/>
<stop offset="1" stop-color="#FFB13B"/>
</linearGradient>
<linearGradient id="paint2_linear_141_13333" x1="-2.22665" y1="19.8458" x2="22.272" y2="19.8458" gradientUnits="userSpaceOnUse">
<stop offset="0.2222" stop-color="#F67408"/>
<stop offset="1" stop-color="#FFB13B"/>
</linearGradient>
<linearGradient id="paint3_linear_141_13333" x1="-2.22665" y1="7.4331" x2="22.272" y2="7.4331" gradientUnits="userSpaceOnUse">
<stop offset="0.2222" stop-color="#F67408"/>
<stop offset="1" stop-color="#FFB13B"/>
</linearGradient>
<clipPath id="clip0_141_13333">
<rect width="164" height="44" fill="white" transform="translate(0.10498 0.0529785)"/>
</clipPath>
</defs>
</svg>
