<svg width="139" height="38" viewBox="0 0 139 38" fill="none" xmlns="http://www.w3.org/2000/svg">
<g clip-path="url(#clip0_154_13763)">
<path d="M21.7502 29.8418H0.5V36.9149H21.7502V29.8418Z" fill="#270D06" fill-opacity="0.65"/>
<path d="M0.5 29.842L19.1598 27.673V20.5527L0.5 22.7218V29.842Z" fill="#270D06" fill-opacity="0.65"/>
<path d="M0.5 22.7453L16.6382 18.4072V11.1455L0.5 15.4837V22.7453Z" fill="#270D06" fill-opacity="0.65"/>
<path d="M0.5 12.7015L11.2053 7.7975V0.300049L0.5 5.20405V12.7015Z" fill="#270D06" fill-opacity="0.65"/>
<path d="M32.4557 10.2024C33.7853 10.2024 34.6563 11.0983 34.6563 12.4658C34.6563 13.8333 33.7623 14.7763 32.4557 14.7763C31.0803 14.7763 30.2092 13.8568 30.2092 12.4658C30.2092 11.0748 31.0803 10.2024 32.4557 10.2024ZM30.5301 36.9857V18.03H34.3584V36.9857H30.5301Z" fill="#270D06" fill-opacity="0.65"/>
<path d="M44.8345 21.7551C42.3586 21.7551 40.5248 24.1599 40.5248 27.5079V36.9857H36.7192V18.03H40.5475V21.1185C41.2124 19.1852 43.2526 17.7942 45.522 17.7942C50.1983 17.7942 53.1326 21.6136 53.1326 27.4607V36.9621H49.3043V27.4607C49.3043 23.9949 47.5393 21.7551 44.8345 21.7551Z" fill="#270D06" fill-opacity="0.65"/>
<path d="M69.2937 33.8972C68.5375 35.8306 66.0158 37.1743 63.4712 37.1743C58.1301 37.1743 54.6685 33.3313 54.6685 27.4843C54.6685 21.6844 58.1301 17.8178 63.4712 17.8178C65.9928 17.8178 68.5145 19.1852 69.2937 21.1421V10.3674H73.122V36.9857H69.2937V33.8972ZM63.9069 33.2134C67.0931 33.2134 69.3167 30.903 69.271 27.5079C69.271 24.1364 67.0243 21.7551 63.9069 21.7551C60.6744 21.7551 58.474 24.0185 58.474 27.4607C58.474 30.95 60.6974 33.2134 63.9069 33.2134Z" fill="#270D06" fill-opacity="0.65"/>
<path d="M91.9425 31.1622C90.6816 34.6986 87.4264 37.1273 83.7359 37.1273C78.4175 37.1273 74.6809 33.119 74.6809 27.437C74.6809 21.9436 78.5552 17.7705 83.6441 17.7705C88.7104 17.7705 92.6074 21.8965 92.6074 27.3427C92.6074 27.8378 92.5844 28.3802 92.4926 28.8518H78.6469C79.1283 31.6101 81.0995 33.402 83.7129 33.402C85.6156 33.402 87.1515 32.4825 87.8621 31.1622H91.9425ZM88.6414 25.9989C88.16 23.3347 86.1888 21.5192 83.6441 21.5192C81.0995 21.5192 79.151 23.3111 78.6469 25.9989H88.6414Z" fill="#270D06" fill-opacity="0.65"/>
<path d="M98.2232 27.508L91.8733 18.03H96.4812L100.561 24.0657L104.619 18.03H109.227L102.877 27.508L109.227 36.9858H104.619L100.539 30.95L96.4582 36.9858H91.8506L98.2232 27.508Z" fill="#270D06" fill-opacity="0.65"/>
<path d="M125.64 31.1622C124.38 34.6986 121.124 37.1273 117.434 37.1273C112.115 37.1273 108.379 33.119 108.379 27.437C108.379 21.9436 112.253 17.7705 117.342 17.7705C122.408 17.7705 126.305 21.8965 126.305 27.3427C126.305 27.8378 126.282 28.3802 126.19 28.8518H112.345C112.826 31.6101 114.798 33.402 117.411 33.402C119.313 33.402 120.849 32.4825 121.56 31.1622H125.64ZM122.362 25.9989C121.881 23.3347 119.909 21.5192 117.365 21.5192C114.82 21.5192 112.872 23.3111 112.367 25.9989H122.362Z" fill="#270D06" fill-opacity="0.65"/>
<path d="M138.5 21.755C134.145 21.7314 131.692 23.924 131.692 27.9086V36.962H127.864V18.0298H131.692V21.5428C133.113 18.7843 135.956 17.8176 138.5 17.8176V21.755Z" fill="#270D06" fill-opacity="0.65"/>
</g>
<defs>
<clipPath id="clip0_154_13763">
<rect width="138" height="37" fill="white" transform="translate(0.5 0.300049)"/>
</clipPath>
</defs>
</svg>
