<svg width="48" height="57" viewBox="0 0 48 57" fill="none" xmlns="http://www.w3.org/2000/svg">
<g clip-path="url(#clip0_141_13311)">
<path d="M47.2804 14.3544C47.2801 14.2594 47.2549 14.1661 47.2072 14.0836C47.1595 14.0011 47.0909 13.9323 47.0082 13.8838L24.1366 0.0785436C24.0482 0.0238682 23.946 -0.00512695 23.8417 -0.00512695C23.7375 -0.00512695 23.6353 0.0238682 23.5469 0.0785436L1.25358 13.8838C1.17512 13.9358 1.11048 14.0058 1.06509 14.0877C1.0197 14.1696 0.994897 14.2611 0.992768 14.3544V41.752C0.991668 41.7706 0.991668 41.7894 0.992768 41.808C1.00352 41.8646 1.02675 41.9182 1.0608 41.9649V42.0433H1.14018L24.1366 56.0279C24.2234 56.0866 24.3262 56.1181 24.4314 56.1181C24.5366 56.1181 24.6394 56.0866 24.7262 56.0279L46.9288 42.2674H47.0082C47.0925 42.1727 47.1476 42.056 47.167 41.9313C47.167 41.9313 47.167 41.9313 47.167 41.8752L47.2804 14.3544ZM23.8531 29.1345L34.206 35.1631C33.0913 36.8592 31.5675 38.2549 29.7717 39.2247C27.9758 40.1945 25.9642 40.7081 23.9177 40.7192C21.8712 40.7303 19.854 40.2386 18.0474 39.2884C16.2409 38.3381 14.7017 36.959 13.5682 35.2752L23.8531 29.1345ZM12.9786 34.2891C11.9794 32.4687 11.4647 30.4274 11.4825 28.3566C11.5003 26.2857 12.0502 24.2534 13.0805 22.45C14.1108 20.6467 15.5878 19.1316 17.3729 18.0468C19.158 16.962 21.1927 16.3431 23.2861 16.2482V28.1372L12.9786 34.2891ZM24.4087 28.1372V16.2482C26.4922 16.3403 28.5181 16.952 30.298 18.0261C32.0779 19.1003 33.5538 20.602 34.5882 22.3915C35.6227 24.1811 36.1821 26.2001 36.2144 28.2608C36.2467 30.3215 35.7509 32.3567 34.773 34.177L24.4087 28.1372ZM37.3357 28.451C37.3297 27.3903 37.2003 26.3338 36.9501 25.3022L45.2166 40.2504L35.7482 34.7373C36.7927 32.8029 37.338 30.6436 37.3357 28.451ZM24.4087 15.1388V2.72305L33.5823 19.24C31.1738 16.7555 27.8872 15.2862 24.4087 15.1388ZM23.2748 15.1388C20.0583 15.2722 16.9968 16.5404 14.6455 18.7134L23.2861 2.76788L23.2748 15.1388ZM12.026 34.8606L3.01119 40.2392L10.5406 26.3219C10.0459 29.2523 10.5695 32.2618 12.026 34.8606ZM12.6044 35.8018C14.3344 38.3768 16.9093 40.2841 19.8956 41.2029H3.56682L12.6044 35.8018ZM35.1698 35.6786L44.661 41.2029H27.7992C30.8336 40.2686 33.4412 38.3141 35.1698 35.6786ZM46.1578 39.5893L25.3499 2.11795L46.1578 14.6682V39.5893ZM22.3563 2.12916L2.12671 39.5445V14.6682L22.3563 2.12916ZM24.4201 54.9073L3.56682 42.3123H44.7517L24.4201 54.9073Z" fill="#270D06" fill-opacity="0.65"/>
<path d="M18.7733 6.07349L3.52173 15.3405V33.9977L18.7733 6.07349Z" fill="#270D06" fill-opacity="0.65"/>
<path d="M29.2622 6.08447L44.7972 15.4187V34.0647L29.2622 6.08447Z" fill="#270D06" fill-opacity="0.65"/>
<path d="M39.286 43.8252L24.4994 52.8008L9.06641 43.8252H39.286Z" fill="#270D06" fill-opacity="0.65"/>
<path d="M22.1524 17.6262C20.4952 17.8804 18.9179 18.5022 17.5388 19.4451C16.1597 20.3879 15.0147 21.6273 14.1898 23.0701C13.3648 24.5129 12.8814 26.1216 12.7757 27.7755C12.6701 29.4294 12.9449 31.0854 13.5797 32.6192L22.1524 27.4983V17.6262Z" fill="#270D06" fill-opacity="0.65"/>
<path d="M34.9434 28.4508C34.9418 25.8347 33.9933 23.3055 32.2692 21.3203C30.5452 19.3351 28.1594 18.0248 25.543 17.6262V27.4871L34.1496 32.496C34.6747 31.2105 34.9442 29.837 34.9434 28.4508Z" fill="#270D06" fill-opacity="0.65"/>
<path d="M23.8533 30.4006L15.3374 35.488C16.3843 36.7283 17.6959 37.7244 19.1783 38.4048C20.6606 39.0852 22.277 39.4331 23.9114 39.4235C25.5458 39.4138 27.1579 39.0469 28.6319 38.3491C30.1059 37.6512 31.4055 36.6397 32.4373 35.3871L23.8533 30.4006Z" fill="#270D06" fill-opacity="0.65"/>
<path d="M22.6965 5.00903L16.3691 16.6964C18.2796 15.5142 20.4497 14.8032 22.6965 14.6234V5.00903Z" fill="#270D06" fill-opacity="0.65"/>
<path d="M4.46265 38.7938L11.2663 34.7262C10.3539 32.9391 9.84326 30.9782 9.76951 28.9778L4.46265 38.7938Z" fill="#270D06" fill-opacity="0.65"/>
<path d="M42.2005 40.7211L35.3969 36.6086C34.191 38.2317 32.6435 39.5774 30.8611 40.553L42.2005 40.7211Z" fill="#270D06" fill-opacity="0.65"/>
<path d="M5.63086 40.7211L12.4345 36.6086C13.6073 38.224 15.1198 39.5696 16.8682 40.553L5.63086 40.7211Z" fill="#270D06" fill-opacity="0.65"/>
<path d="M25.0779 5.02026L31.4053 16.7077C29.4948 15.5254 27.3247 14.8145 25.0779 14.6346V5.02026Z" fill="#270D06" fill-opacity="0.65"/>
<path d="M43.4477 38.5136L36.644 34.4572C37.5567 32.6661 38.0673 30.7015 38.1408 28.6975L43.4477 38.5136Z" fill="#270D06" fill-opacity="0.65"/>
</g>
<defs>
<clipPath id="clip0_141_13311">
<rect width="46.2876" height="56.1062" fill="white" transform="translate(0.992676)"/>
</clipPath>
</defs>
</svg>
