<svg width="203" height="36" viewBox="0 0 203 36" fill="none" xmlns="http://www.w3.org/2000/svg">
<g clip-path="url(#clip0_139_13690)">
<path d="M0.743057 22.6785C-0.132746 19.9413 3.22687 19.7172 4.81317 22.1348C6.31305 24.4206 8.37723 26.5714 11.2181 28.0152C12.9699 28.9046 14.4587 29.2435 16.5459 29.7167C25.3505 31.7152 32.9559 29.7416 35.3262 29.0958C36.9866 28.6449 37.374 28.4263 43.6088 26.5684C46.0389 25.8468 48.2836 25.1972 51.2638 25.2817C52.1324 25.3064 52.2011 26.3849 51.3796 26.6601C49.867 27.167 48.3838 27.7566 46.9369 28.4263C43.8959 29.831 42.853 30.7426 40.2119 32.0156C37.0943 33.5048 33.778 34.5585 30.3606 35.1455C27.1848 35.728 21.8253 36.714 15.3975 34.9654C12.6714 34.2201 8.12743 32.9249 4.43715 28.8797C1.86221 26.0604 0.923443 23.2424 0.743057 22.6785Z" fill="#270D06" fill-opacity="0.65"/>
<path d="M4.46247 8.00643C5.10109 6.43947 6.97539 7.64694 6.78147 9.32148C6.68031 10.1952 6.65134 11.1161 6.72082 12.0771C6.84554 13.7682 7.24878 15.4287 7.91492 16.9941C10.1482 22.1221 15.0465 25.2669 14.7315 25.6321C14.7099 25.6582 14.6553 25.678 14.5054 25.6321C12.8755 25.0346 9.17 23.4213 6.41976 19.6023C5.6093 18.4757 3.84354 16.0216 3.65301 12.6881C3.55423 10.9742 3.89342 9.40277 4.46247 8.00643Z" fill="#270D06" fill-opacity="0.65"/>
<path d="M27.8997 13.3592C28.141 13.3108 28.5564 8.80984 25.7655 6.3532C24.2069 4.98703 22.2861 4.80942 21.6077 4.74856C21.2368 4.71504 18.4434 4.50637 15.9739 6.29979C12.4272 8.87318 12.4742 13.4499 12.5275 14.5366C12.7549 19.2239 16.1695 22.2779 16.9037 22.9337C25.4429 30.568 41.1059 25.2933 43.5996 24.003C43.7126 23.9446 44.1408 23.7173 44.7428 23.4677C45.8925 22.9957 47.3649 22.5746 50.7057 22.3498C51.9088 22.2667 52.1827 20.8597 50.9991 20.6348C50.1332 20.4702 49.3738 20.3965 48.7418 20.3664C46.9774 20.2808 45.2497 20.4907 41.7945 20.9004C40.3336 21.0756 39.7835 21.1725 38.6187 21.329C31.8237 22.2455 28.3557 22.6777 24.8877 21.3824C22.8806 20.6371 21.6687 19.6809 21.2774 19.3493C20.3387 18.5569 18.4447 16.9572 18.0495 14.3217C17.981 13.8672 17.4907 10.2232 19.9639 8.65335C21.5392 7.65232 23.3583 8.11805 23.5716 8.17146C25.2409 8.62229 26.1213 9.91022 26.6903 10.7386C27.7079 12.2166 27.774 13.3853 27.8997 13.3592Z" fill="#270D06" fill-opacity="0.65"/>
<path d="M9.89962 10.2579C9.81197 9.30529 9.71669 6.85612 11.2131 4.3734C11.5282 3.85177 12.4415 2.37257 14.1666 1.32559C14.8216 0.927946 15.497 0.651108 16.1697 0.46662C17.7617 0.0300474 17.7012 1.75254 16.2269 2.48096C15.029 3.07287 14.2134 3.77689 13.6369 4.44917C11.5866 6.83874 10.7698 10.9074 10.1486 10.7584C9.99743 10.7261 9.93137 10.4554 9.89962 10.2579Z" fill="#270D06" fill-opacity="0.65"/>
<path d="M73.6507 10.5737V14.2558H61.478V10.5737H73.6507ZM64.4832 5.73438H69.4737V24.6971C69.4737 25.3371 69.5747 25.8282 69.7769 26.1701C69.9883 26.5032 70.264 26.7311 70.604 26.8539C70.9441 26.9765 71.321 27.038 71.7344 27.038C72.0469 27.038 72.3318 27.016 72.5891 26.9722C72.8558 26.9283 73.0579 26.8889 73.1957 26.8539L74.0366 30.5753C73.7701 30.6631 73.3888 30.7594 72.8925 30.8647C72.4053 30.9699 71.808 31.0312 71.1003 31.0488C69.8504 31.0839 68.7246 30.9041 67.7228 30.5096C66.7212 30.1063 65.9261 29.4838 65.3379 28.6423C64.759 27.8007 64.4742 26.7486 64.4832 25.4863V5.73438Z" fill="#270D06" fill-opacity="0.65"/>
<path d="M93.092 15.9128L88.5428 16.3863C88.4142 15.9478 88.189 15.5358 87.8673 15.15C87.5549 14.7644 87.132 14.4531 86.599 14.2164C86.066 13.9797 85.4134 13.8614 84.6414 13.8614C83.6029 13.8614 82.7299 14.0762 82.0221 14.5057C81.3238 14.9353 80.9792 15.492 80.9882 16.1758C80.9792 16.7632 81.2043 17.241 81.6637 17.6092C82.1325 17.9775 82.9045 18.2799 83.9798 18.5166L87.5916 19.2531C89.595 19.6651 91.0838 20.3182 92.0581 21.2123C93.0415 22.1067 93.5377 23.2771 93.547 24.7236C93.5377 25.9947 93.1471 27.117 92.3752 28.09C91.6124 29.0545 90.5508 29.8084 89.1906 30.352C87.8304 30.8954 86.2681 31.1672 84.5036 31.1672C81.9119 31.1672 79.8257 30.65 78.2449 29.6155C76.6642 28.5722 75.7222 27.1213 75.4189 25.2627L80.2852 24.8157C80.5058 25.7274 80.9746 26.4156 81.6914 26.8802C82.4082 27.3449 83.341 27.5772 84.4899 27.5772C85.6753 27.5772 86.6265 27.3449 87.3434 26.8802C88.0694 26.4156 88.4325 25.8414 88.4325 25.1576C88.4325 24.5789 88.1981 24.1011 87.7295 23.7242C87.2699 23.3472 86.5531 23.0578 85.5788 22.8563L81.9671 22.1329C79.936 21.7297 78.4334 21.0502 77.4592 20.0946C76.485 19.1303 76.0025 17.9117 76.0117 16.4389C76.0025 15.1939 76.3563 14.1156 77.0732 13.2039C77.7992 12.2833 78.8056 11.5732 80.0922 11.0735C81.388 10.565 82.8815 10.3108 84.5726 10.3108C87.054 10.3108 89.0068 10.8149 90.4314 11.8231C91.8651 12.8313 92.7519 14.1945 93.092 15.9128Z" fill="#270D06" fill-opacity="0.65"/>
<path d="M109.993 22.2775V10.5737H114.984V30.7726H110.145V27.1825H109.924C109.447 28.3136 108.661 29.2385 107.567 29.9573C106.483 30.6762 105.145 31.0357 103.555 31.0357C102.168 31.0357 100.941 30.742 99.8748 30.1546C98.8178 29.5585 97.9908 28.6949 97.3934 27.564C96.7959 26.4243 96.4973 25.0479 96.4973 23.4347V10.5737H101.488V22.6984C101.488 23.9783 101.855 24.9952 102.591 25.7493C103.326 26.5032 104.291 26.8802 105.485 26.8802C106.221 26.8802 106.933 26.7092 107.622 26.3673C108.312 26.0254 108.877 25.5169 109.318 24.8418C109.768 24.158 109.993 23.3033 109.993 22.2775Z" fill="#270D06" fill-opacity="0.65"/>
<path d="M123.941 18.9374V30.7727H118.951V10.5738H123.72V14.006H123.969C124.456 12.8751 125.232 11.9765 126.298 11.3102C127.374 10.6439 128.702 10.3108 130.282 10.3108C131.744 10.3108 133.017 10.6089 134.101 11.205C135.195 11.8012 136.04 12.6647 136.637 13.7956C137.244 14.9266 137.543 16.2985 137.534 17.9117V30.7727H132.543V18.648C132.543 17.298 132.176 16.2416 131.44 15.4788C130.714 14.7162 129.708 14.3348 128.421 14.3348C127.548 14.3348 126.772 14.5189 126.092 14.8871C125.421 15.2466 124.892 15.7682 124.506 16.452C124.129 17.1359 123.941 17.9642 123.941 18.9374Z" fill="#270D06" fill-opacity="0.65"/>
<path d="M147.535 31.1803C146.193 31.1803 144.985 30.9524 143.91 30.4965C142.844 30.0319 141.998 29.348 141.373 28.4451C140.757 27.5421 140.45 26.4287 140.45 25.1049C140.45 23.9652 140.67 23.0227 141.111 22.2776C141.552 21.5325 142.154 20.9362 142.917 20.4892C143.68 20.0421 144.539 19.7045 145.495 19.4766C146.46 19.2398 147.457 19.0689 148.486 18.9637C149.727 18.8409 150.733 18.7314 151.505 18.6349C152.277 18.5297 152.838 18.3719 153.187 18.1616C153.546 17.9424 153.724 17.6049 153.724 17.149V17.0701C153.724 16.0794 153.417 15.3123 152.801 14.7688C152.186 14.2252 151.299 13.9534 150.141 13.9534C148.918 13.9534 147.949 14.2077 147.232 14.7162C146.524 15.2246 146.046 15.8252 145.798 16.5177L141.139 15.8865C141.506 14.6592 142.113 13.6334 142.958 12.8093C143.804 11.9765 144.838 11.354 146.06 10.942C147.283 10.5212 148.634 10.3108 150.113 10.3108C151.133 10.3108 152.149 10.4248 153.16 10.6527C154.171 10.8806 155.094 11.2576 155.931 11.7836C156.767 12.3009 157.438 13.0066 157.943 13.9008C158.458 14.7951 158.715 15.9128 158.715 17.2542V30.7727H153.918V27.998H153.752C153.449 28.5591 153.022 29.085 152.471 29.576C151.928 30.0583 151.244 30.4483 150.416 30.7464C149.599 31.0358 148.638 31.1803 147.535 31.1803ZM148.831 27.6824C149.833 27.6824 150.701 27.4939 151.437 27.117C152.172 26.7312 152.737 26.2227 153.132 25.5915C153.537 24.9602 153.738 24.2721 153.738 23.5269V21.1467C153.583 21.2693 153.316 21.3833 152.939 21.4886C152.572 21.5938 152.158 21.6858 151.699 21.7647C151.239 21.8437 150.784 21.9138 150.334 21.9751C149.883 22.0365 149.493 22.0891 149.162 22.1329C148.418 22.2294 147.751 22.3873 147.163 22.6064C146.575 22.8255 146.111 23.1324 145.771 23.5269C145.431 23.9126 145.261 24.4123 145.261 25.026C145.261 25.9027 145.596 26.5646 146.267 27.0117C146.938 27.4589 147.793 27.6824 148.831 27.6824Z" fill="#270D06" fill-opacity="0.65"/>
<path d="M162.569 30.7727V10.5738H167.339V14.006H167.586C168.027 12.8488 168.759 11.9458 169.779 11.2971C170.798 10.6395 172.017 10.3108 173.431 10.3108C174.865 10.3108 176.075 10.6439 177.057 11.3102C178.05 11.9677 178.749 12.8663 179.153 14.006H179.373C179.842 12.8839 180.632 11.9896 181.744 11.3234C182.866 10.6483 184.194 10.3108 185.728 10.3108C187.677 10.3108 189.266 10.8982 190.499 12.0729C191.73 13.2477 192.345 14.9616 192.345 17.2148V30.7727H187.342V17.9511C187.342 16.6974 186.992 15.7814 186.294 15.2027C185.595 14.6153 184.74 14.3216 183.73 14.3216C182.525 14.3216 181.583 14.6811 180.904 15.3999C180.232 16.1101 179.897 17.035 179.897 18.1747V30.7727H175.003V17.7539C175.003 16.7106 174.673 15.8777 174.011 15.2554C173.359 14.6329 172.503 14.3216 171.447 14.3216C170.729 14.3216 170.077 14.497 169.489 14.8477C168.9 15.1896 168.433 15.6762 168.082 16.3073C167.734 16.9298 167.558 17.6575 167.558 18.4904V30.7727H162.569Z" fill="#270D06" fill-opacity="0.65"/>
<path d="M196.244 30.7725V10.5737H201.234V30.7725H196.244ZM198.752 7.7069C197.962 7.7069 197.281 7.45705 196.713 6.95733C196.142 6.44885 195.858 5.83954 195.858 5.12943C195.858 4.41054 196.142 3.80124 196.713 3.30153C197.281 2.79306 197.962 2.53882 198.752 2.53882C199.551 2.53882 200.232 2.79306 200.793 3.30153C201.362 3.80124 201.648 4.41054 201.648 5.12943C201.648 5.83954 201.362 6.44885 200.793 6.95733C200.232 7.45705 199.551 7.7069 198.752 7.7069Z" fill="#270D06" fill-opacity="0.65"/>
</g>
<defs>
<clipPath id="clip0_139_13690">
<rect width="202.877" height="35.8019" fill="white" transform="translate(0 0.1521)"/>
</clipPath>
</defs>
</svg>
